# This file is brought to you by Roblox Corporation
# Generated by Roblox Studio

mtllib cardboard box open.mtl

g CardboardBox11

v 363.208 134.003 -28.523 
v 361.282 135.283 -28.5322 
v 361.309 134.003 -28.4862 
v 361.523 135.612 -27.7112 
v 362.987 135.612 -27.7165 
v 361.518 135.627 -27.7169 
v 362.993 135.627 -27.7222 
v 363.236 135.655 -27.7694 
v 363.236 135.64 -27.7638 
v 363.234 135.527 -27.9641 
v 363.233 135.509 -27.9637 
v 363.233 135.282 -28.5491 
v 361.268 135.656 -27.7602 
v 361.264 135.521 -27.972 
v 361.268 135.641 -27.7545 
v 363.216 135.618 -27.604 
v 363.216 135.602 -27.6092 
v 362.966 135.543 -27.625 
v 362.961 135.527 -27.6301 
v 361.694 135.527 -27.6256 
v 361.689 135.543 -27.6204 
v 361.287 135.615 -27.5882 
v 361.287 135.632 -27.583 
v 363.233 135.267 -28.5434 
v 363.233 135.282 -28.5491 
v 363.233 135.509 -27.9637 
v 361.264 135.521 -27.972 
v 361.264 135.282 -28.5489 
v 361.264 135.504 -27.9713 
v 361.268 135.641 -27.7545 
v 361.264 135.299 -26.7389 
v 361.283 135.299 -26.7389 
v 361.264 135.291 -27.6526 
v 361.283 135.291 -27.6526 
v 361.264 135.282 -28.5489 
v 361.283 135.282 -28.549 
v 363.215 135.291 -27.6594 
v 363.215 135.283 -28.5324 
v 363.208 134.003 -28.523 
v 363.191 134.02 -26.7471 
v 363.215 135.3 -26.7558 
v 362.987 135.612 -27.7165 
v 363.236 135.64 -27.7638 
v 362.993 135.627 -27.7222 
v 363.233 135.282 -28.5491 
v 363.214 135.282 -28.5491 
v 363.234 135.29 -27.6596 
v 363.215 135.29 -27.6596 
v 363.234 135.299 -26.739 
v 363.215 135.299 -26.739 
v 361.264 135.299 -26.7389 
v 361.264 133.992 -27.0026 
v 361.302 133.995 -26.7555 
v 361.264 135.291 -27.6526 
v 361.264 133.98 -28.2667 
v 361.291 133.978 -28.5027 
v 361.264 135.282 -28.5489 
v 361.291 133.978 -28.5027 
v 361.403 133.978 -28.5384 
v 361.264 133.98 -28.2667 
v 361.264 133.992 -27.0026 
v 361.302 133.995 -26.7555 
v 363.036 133.978 -28.5872 
v 363.226 133.978 -28.5396 
v 363.257 133.981 -28.2937 
v 363.248 133.993 -26.9009 
v 361.54 133.995 -26.699 
v 363.019 133.995 -26.7022 
v 363.21 133.995 -26.7301 
v 363.233 135.282 -28.5491 
v 363.257 133.981 -28.2937 
v 363.226 133.978 -28.5396 
v 363.234 135.29 -27.6596 
v 363.248 133.993 -26.9009 
v 363.21 133.995 -26.7301 
v 363.234 135.299 -26.739 
v 363.236 135.655 -27.7694 
v 362.993 135.627 -27.7222 
v 363.236 135.64 -27.7638 
v 363.233 135.282 -28.5491 
v 363.226 133.978 -28.5396 
v 363.036 133.978 -28.5872 
v 361.264 135.282 -28.5489 
v 361.403 133.978 -28.5384 
v 361.291 133.978 -28.5027 
v 361.523 135.612 -27.7112 
v 361.264 135.504 -27.9713 
v 362.987 135.612 -27.7165 
v 361.268 135.641 -27.7545 
v 363.233 135.267 -28.5434 
v 361.266 135.267 -28.5433 
v 363.233 135.509 -27.9637 
v 363.236 135.64 -27.7638 
v 361.268 135.656 -27.7602 
v 361.268 135.641 -27.7545 
v 361.518 135.627 -27.7169 
v 363.21 133.995 -26.7301 
v 363.234 135.299 -26.739 
v 363.019 133.995 -26.7022 
v 361.54 133.995 -26.699 
v 361.264 135.299 -26.7389 
v 361.302 133.995 -26.7555 
v 363.234 135.299 -26.739 
v 361.264 135.425 -27.1912 
v 361.264 135.299 -26.7389 
v 362.966 135.543 -27.625 
v 363.234 135.469 -27.3546 
v 363.216 135.618 -27.604 
v 361.689 135.543 -27.6204 
v 361.287 135.632 -27.583 
v 361.268 135.283 -26.7441 
v 363.233 135.451 -27.3549 
v 363.232 135.283 -26.7442 
v 361.694 135.527 -27.6256 
v 361.266 135.407 -27.1931 
v 361.287 135.615 -27.5882 
v 362.961 135.527 -27.6301 
v 363.216 135.602 -27.6092 
v 361.264 135.282 -28.5489 
v 363.234 135.527 -27.9641 
v 363.233 135.282 -28.5491 
v 361.518 135.627 -27.7169 
v 361.264 135.521 -27.972 
v 361.268 135.656 -27.7602 
v 362.993 135.627 -27.7222 
v 363.236 135.655 -27.7694 
v 361.282 135.291 -27.6525 
v 361.309 134.003 -28.4862 
v 361.282 135.283 -28.5322 
v 361.32 134.02 -26.7725 
v 361.282 135.3 -26.7557 
v 361.523 135.612 -27.7112 
v 361.518 135.627 -27.7169 
v 361.268 135.641 -27.7545 
v 363.208 134.003 -28.523 
v 361.32 134.02 -26.7725 
v 363.191 134.02 -26.7471 
v 361.309 134.003 -28.4862 
v 361.32 134.02 -26.7725 
v 363.215 135.3 -26.7558 
v 363.191 134.02 -26.7471 
v 361.282 135.3 -26.7557 
v 361.282 135.283 -28.5322 
v 363.208 134.003 -28.523 
v 363.215 135.283 -28.5324 
v 361.266 135.267 -28.5433 
v 361.264 135.504 -27.9713 
v 361.264 135.282 -28.5489 
v 363.234 135.469 -27.3546 
v 363.234 135.299 -26.739 
v 363.233 135.451 -27.3549 
v 363.233 135.451 -27.3549 
v 363.216 135.602 -27.6092 
v 363.234 135.469 -27.3546 
v 363.232 135.283 -26.7442 
v 363.233 135.451 -27.3549 
v 363.234 135.299 -26.739 
v 363.216 135.618 -27.604 
v 363.234 135.469 -27.3546 
v 363.216 135.602 -27.6092 
v 361.264 135.425 -27.1912 
v 361.287 135.632 -27.583 
v 361.266 135.407 -27.1931 
v 361.266 135.407 -27.1931 
v 361.268 135.283 -26.7441 
v 361.264 135.425 -27.1912 
v 361.287 135.615 -27.5882 
v 361.266 135.407 -27.1931 
v 361.287 135.632 -27.583 
v 361.264 135.299 -26.7389 
v 361.264 135.425 -27.1912 
v 361.268 135.283 -26.7441 

vn 0.015748 0.0393701 1 
vn 0.015748 0.0393701 1 
vn 0.015748 0.0393701 1 
vn 0 0.354331 0.937008 
vn 0 0.354331 0.937008 
vn 0 0.354331 0.937008 
vn 0 0.354331 0.937008 
vn 1 0 -0.00787402 
vn 1 -0.015748 0 
vn 1 -0.015748 0 
vn 1 -0.015748 0 
vn 1 -0.015748 0.00787402 
vn -1 0.00787402 0.015748 
vn -1 0.00787402 0.015748 
vn -1 0.00787402 0.015748 
vn -0.00787402 0.299213 -0.952756 
vn -0.00787402 0.299213 -0.952756 
vn -0.00787402 0.299213 -0.952756 
vn -0.00787402 0.299213 -0.952756 
vn -0.023622 0.291339 -0.952756 
vn -0.023622 0.299213 -0.952756 
vn -0.023622 0.299213 -0.952756 
vn -0.023622 0.299213 -0.952756 
vn 1 -0.0472441 0.023622 
vn 1 -0.0472441 0.023622 
vn 1 -0.0472441 0.023622 
vn -1 -0.0314961 0.015748 
vn -1 -0.0314961 0.015748 
vn -1 -0.0314961 0.015748 
vn -1 -0.0314961 0.0314961 
vn 0 1 -0.00787402 
vn 0 1 -0.00787402 
vn 0 1 -0.00787402 
vn 0 1 -0.00787402 
vn 0 1 -0.00787402 
vn 0 1 -0.00787402 
vn -1 0.00787402 0 
vn -1 0.00787402 0 
vn -1 0.00787402 0 
vn -1 0.015748 0 
vn -1 0.015748 0 
vn 0.141732 0.299213 0.944882 
vn 0.141732 0.299213 0.944882 
vn 0.141732 0.299213 0.944882 
vn 0 1 -0.00787402 
vn 0 1 -0.00787402 
vn 0 1 -0.00787402 
vn 0 1 -0.00787402 
vn 0 1 -0.00787402 
vn 0 1 -0.00787402 
vn -1 -0.015748 0.0787402 
vn -1 -0.00787402 0.0472441 
vn -0.984252 -0.0314961 0.149606 
vn -1 0.00787402 -0.0314961 
vn -1 0.023622 -0.0551181 
vn -1 0.015748 -0.0551181 
vn -1 -0.023622 0 
vn 0 -1 0.00787402 
vn 0.00787402 -1 0.00787402 
vn 0 -1 0.00787402 
vn 0.00787402 -1 0.00787402 
vn 0 -1 0.00787402 
vn 0 -1 0.00787402 
vn 0 -1 0.00787402 
vn 0 -1 0.00787402 
vn 0 -1 0 
vn 0 -1 0 
vn 0 -1 0.00787402 
vn 0 -1 0.00787402 
vn 1 0.00787402 -0.0629921 
vn 1 0.00787402 -0.0393701 
vn 0.992126 -0.00787402 -0.125984 
vn 1 0.0393701 0.0551181 
vn 0.992126 0.0787402 0.110236 
vn 0.992126 0.0629921 0.110236 
vn 1 -0.015748 0 
vn 0.141732 0.346457 0.929134 
vn 0.141732 0.346457 0.929134 
vn 0.141732 0.346457 0.929134 
vn 0.125984 0.00787402 -0.992126 
vn 0.244094 -0.00787402 -0.968504 
vn 0.0708661 0 -1 
vn -0.110236 -0.00787402 -0.992126 
vn -0.165354 -0.023622 -0.984252 
vn -0.299213 -0.0393701 -0.952756 
vn -0.0944882 -0.88189 0.456693 
vn -0.0472441 -0.905512 0.425197 
vn 0.0472441 -0.905512 0.425197 
vn -0.181102 -0.826772 0.527559 
vn 0 -0.92126 0.385827 
vn 0 -0.92126 0.385827 
vn 0.102362 -0.88189 0.464567 
vn 0.19685 -0.818898 0.535433 
vn -0.11811 0.346457 0.929134 
vn -0.11811 0.346457 0.929134 
vn -0.11811 0.346457 0.929134 
vn 0.141732 0.00787402 0.992126 
vn 0.0472441 0.023622 1 
vn 0.0708661 0.015748 1 
vn -0.0787402 0.015748 1 
vn -0.11811 0.00787402 0.992126 
vn -0.228346 -0.015748 0.976378 
vn 0 0.96063 0.267717 
vn 0.0629921 0.944882 0.322835 
vn 0 0.96063 0.267717 
vn -0.0708661 0.937008 0.330709 
vn -0.149606 0.905512 0.393701 
vn -0.283465 0.811024 0.511811 
vn 0.11811 0.92126 0.370079 
vn 0.228346 0.850394 0.464567 
vn 0 -0.96063 -0.267717 
vn 0.0708661 -0.937008 -0.330709 
vn 0 -0.96063 -0.267717 
vn -0.0629921 -0.944882 -0.322835 
vn -0.11811 -0.92126 -0.370079 
vn -0.228346 -0.858268 -0.464567 
vn 0.141732 -0.905512 -0.393701 
vn 0.283465 -0.818898 -0.503937 
vn 0 0.92126 -0.385827 
vn -0.0472441 0.905512 -0.425197 
vn 0 0.92126 -0.385827 
vn 0.0472441 0.905512 -0.425197 
vn 0.0944882 0.88189 -0.464567 
vn 0.188976 0.826772 -0.527559 
vn -0.102362 0.88189 -0.464567 
vn -0.19685 0.818898 -0.535433 
vn 1 0.0314961 0 
vn 1 0.023622 0 
vn 1 0.023622 0 
vn 1 0.0314961 0 
vn 1 0.0314961 0 
vn -0.125984 0.307087 0.944882 
vn -0.125984 0.307087 0.944882 
vn -0.125984 0.307087 0.944882 
vn 0 1 -0.00787402 
vn 0 1 -0.00787402 
vn 0 1 -0.00787402 
vn 0 1 -0.00787402 
vn 0.00787402 0 -1 
vn 0.00787402 0 -1 
vn 0.015748 -0.00787402 -1 
vn 0 0.015748 -1 
vn 0 0.00787402 1 
vn 0 0.00787402 1 
vn 0 0.00787402 1 
vn -0.992126 -0.0944882 0.0393701 
vn -0.992126 -0.0944882 0.0393701 
vn -0.992126 -0.0944882 0.0393701 
vn 1 -0.023622 -0.00787402 
vn 1 -0.023622 -0.00787402 
vn 1 -0.023622 -0.00787402 
vn 1 -0.023622 -0.0787402 
vn 1 -0.023622 -0.0787402 
vn 1 -0.023622 -0.0787402 
vn 1 -0.0708661 -0.015748 
vn 1 -0.0708661 -0.015748 
vn 1 -0.0708661 -0.015748 
vn 1 0.015748 -0.0629921 
vn 1 0.015748 -0.0629921 
vn 1 0.015748 -0.0629921 
vn -0.984252 -0.102362 -0.110236 
vn -0.984252 -0.102362 -0.110236 
vn -0.984252 -0.102362 -0.110236 
vn -0.992126 -0.110236 -0.023622 
vn -0.992126 -0.110236 -0.023622 
vn -0.992126 -0.110236 -0.023622 
vn -1 0.015748 -0.0472441 
vn -1 0.015748 -0.0472441 
vn -1 0.015748 -0.0472441 
vn -0.968504 -0.228346 -0.0629921 
vn -0.968504 -0.228346 -0.0629921 
vn -0.968504 -0.228346 -0.0629921 

vt 0.1546 0.719 
vt 0.2525 0.8495 
vt 0.1546 0.8495 
vt 0.52 0.7331 
vt 0.516 0.879 
vt 0.5222 0.7321 
vt 0.5182 0.8791 
vt 0.5216 0.8995 
vt 0.5193 0.8999 
vt 0.5023 0.8829 
vt 0.4997 0.8829 
vt 0.4652 0.8341 
vt 0.527 0.7036 
vt 0.5068 0.6855 
vt 0.5248 0.7041 
vt 0.5165 0.9112 
vt 0.514 0.9108 
vt 0.5061 0.8844 
vt 0.5036 0.8834 
vt 0.5071 0.7573 
vt 0.5095 0.7572 
vt 0.5213 0.7198 
vt 0.5237 0.7203 
vt 0.463 0.8345 
vt 0.4652 0.8341 
vt 0.4997 0.8829 
vt 0.5068 0.6855 
vt 0.4705 0.6373 
vt 0.5043 0.6856 
vt 0.5248 0.7041 
vt 0.5533 0.8193 
vt 0.5533 0.8193 
vt 0.4071 0.8193 
vt 0.4071 0.8193 
vt 0.2636 0.8193 
vt 0.2636 0.8193 
vt 0.2523 0.7952 
vt 0.2523 0.8717 
vt 0.1565 0.8717 
vt 0.1565 0.7159 
vt 0.2523 0.7159 
vt 0.516 0.879 
vt 0.5193 0.8999 
vt 0.5182 0.8791 
vt 0.5533 0.8193 
vt 0.5533 0.8193 
vt 0.4109 0.8193 
vt 0.4109 0.8193 
vt 0.2636 0.8193 
vt 0.2636 0.8193 
vt 0.5533 0.8193 
vt 0.5094 0.9975 
vt 0.5533 0.9975 
vt 0.4071 0.8193 
vt 0.3071 0.9975 
vt 0.2636 0.9975 
vt 0.2636 0.8193 
vt 0.2593 0.7142 
vt 0.2593 0.7342 
vt 0.2205 0.7142 
vt 0.0401 0.7142 
vt 0.0009 0.7142 
vt 0.2593 0.9658 
vt 0.2593 0.9976 
vt 0.2174 0.9976 
vt 0.0293 0.9976 
vt 0.0009 0.7582 
vt 0.0009 0.9647 
vt 0.0009 0.9976 
vt 0.5533 0.8193 
vt 0.5063 0.9975 
vt 0.5533 0.9975 
vt 0.4109 0.8193 
vt 0.2954 0.9975 
vt 0.2636 0.9975 
vt 0.2636 0.8193 
vt 0.5216 0.8995 
vt 0.5182 0.8791 
vt 0.5193 0.8999 
vt 0.2629 0.6189 
vt 0.2629 0.8148 
vt 0.2954 0.8148 
vt 0.5531 0.6189 
vt 0.5326 0.8148 
vt 0.5531 0.8148 
vt 0.9558 0.8633 
vt 0.9995 0.9059 
vt 0.7093 0.8641 
vt 0.9995 0.8632 
vt 0.6678 0.9995 
vt 0.9995 0.9995 
vt 0.6678 0.9046 
vt 0.6678 0.8642 
vt 0.527 0.7036 
vt 0.5248 0.7041 
vt 0.5222 0.7321 
vt 0.5531 0.8148 
vt 0.5531 0.6189 
vt 0.5194 0.8148 
vt 0.3079 0.8148 
vt 0.2629 0.6189 
vt 0.2629 0.8148 
vt 0.6678 0.7242 
vt 0.9995 0.7956 
vt 0.9995 0.7242 
vt 0.7129 0.8615 
vt 0.6678 0.8214 
vt 0.6678 0.8616 
vt 0.9279 0.8608 
vt 0.9995 0.8606 
vt 0.9995 0.7242 
vt 0.6678 0.8206 
vt 0.6678 0.7242 
vt 0.927 0.8634 
vt 0.9995 0.7951 
vt 0.9995 0.8632 
vt 0.7137 0.8641 
vt 0.6678 0.8642 
vt 0.9995 0.9995 
vt 0.6678 0.9037 
vt 0.6678 0.9995 
vt 0.9567 0.8658 
vt 0.9995 0.9051 
vt 0.9995 0.8657 
vt 0.7083 0.8666 
vt 0.6678 0.8667 
vt 0.2523 0.7931 
vt 0.1565 0.7159 
vt 0.2523 0.7159 
vt 0.1565 0.8717 
vt 0.2523 0.8717 
vt 0.52 0.7331 
vt 0.5222 0.7321 
vt 0.5248 0.7041 
vt 0.2583 0.9892 
vt 0.1525 0.8732 
vt 0.1525 0.9892 
vt 0.2583 0.8732 
vt 0.1546 0.719 
vt 0.2525 0.8495 
vt 0.1546 0.8495 
vt 0.2525 0.719 
vt 0.2525 0.8495 
vt 0.1546 0.719 
vt 0.2525 0.719 
vt 0.4683 0.6379 
vt 0.5043 0.6856 
vt 0.4705 0.6373 
vt 0.4948 0.9336 
vt 0.471 0.9847 
vt 0.4922 0.9335 
vt 0.4922 0.9335 
vt 0.514 0.9108 
vt 0.4948 0.9336 
vt 0.4686 0.9842 
vt 0.4922 0.9335 
vt 0.471 0.9847 
vt 0.5165 0.9112 
vt 0.4948 0.9336 
vt 0.514 0.9108 
vt 0.494 0.7504 
vt 0.5237 0.7203 
vt 0.4914 0.7504 
vt 0.4914 0.7504 
vt 0.4739 0.7879 
vt 0.494 0.7504 
vt 0.5213 0.7198 
vt 0.4914 0.7504 
vt 0.5237 0.7203 
vt 0.4763 0.7879 
vt 0.494 0.7504 
vt 0.4739 0.7879 

usemtl CardboardBox11Mtl

f 1/1/1 2/2/2 3/3/3 
f 4/4/4 5/5/5 6/6/6 
f 7/7/7 6/6/6 5/5/5 
f 8/8/8 9/9/9 10/10/10 
f 11/11/11 10/10/10 9/9/9 
f 10/10/10 11/11/11 12/12/12 
f 13/13/13 14/14/14 15/15/15 
f 16/16/16 17/17/17 18/18/18 
f 19/19/19 18/18/18 17/17/17 
f 19/19/19 20/20/20 18/18/18 
f 21/21/21 18/18/18 20/20/20 
f 20/20/20 22/22/22 21/21/21 
f 23/23/23 21/21/21 22/22/22 
f 24/24/24 25/25/25 26/26/26 
f 27/27/27 28/28/28 29/29/29 
f 29/29/29 30/30/30 27/27/27 
f 31/31/31 32/32/32 33/33/33 
f 34/34/34 33/33/33 32/32/32 
f 33/33/33 34/34/34 35/35/35 
f 36/36/36 35/35/35 34/34/34 
f 37/37/37 38/38/38 39/39/39 
f 39/39/39 40/40/40 37/37/37 
f 37/37/37 40/40/40 41/41/41 
f 42/42/42 43/43/43 44/44/44 
f 45/45/45 46/46/46 47/47/47 
f 48/48/48 47/47/47 46/46/46 
f 47/47/47 48/48/48 49/49/49 
f 50/50/50 49/49/49 48/48/48 
f 51/51/51 52/52/52 53/53/53 
f 52/52/52 51/51/51 54/54/54 
f 54/54/54 55/55/55 52/52/52 
f 54/54/54 56/56/56 55/55/55 
f 57/57/57 56/56/56 54/54/54 
f 58/58/58 59/59/59 60/60/60 
f 60/60/60 59/59/59 61/61/61 
f 61/61/61 59/59/59 62/62/62 
f 59/59/59 63/63/63 62/62/62 
f 63/63/63 64/64/64 62/62/62 
f 65/65/65 62/62/62 64/64/64 
f 66/66/66 62/62/62 65/65/65 
f 67/67/67 62/62/62 66/66/66 
f 68/68/68 67/67/67 66/66/66 
f 69/69/69 68/68/68 66/66/66 
f 70/70/70 71/71/71 72/72/72 
f 71/71/71 70/70/70 73/73/73 
f 73/73/73 74/74/74 71/71/71 
f 73/73/73 75/75/75 74/74/74 
f 76/76/76 75/75/75 73/73/73 
f 77/77/77 78/78/78 79/79/79 
f 80/80/80 81/81/81 82/82/82 
f 82/82/82 83/83/83 80/80/80 
f 84/84/84 83/83/83 82/82/82 
f 85/85/85 83/83/83 84/84/84 
f 86/86/86 87/87/87 88/88/88 
f 89/89/89 87/87/87 86/86/86 
f 88/88/88 87/87/87 90/90/90 
f 90/90/90 87/87/87 91/91/91 
f 92/92/92 88/88/88 90/90/90 
f 93/93/93 88/88/88 92/92/92 
f 94/94/94 95/95/95 96/96/96 
f 97/97/97 98/98/98 99/99/99 
f 99/99/99 98/98/98 100/100/100 
f 100/100/100 98/98/98 101/101/101 
f 101/101/101 102/102/102 100/100/100 
f 103/103/103 104/104/104 105/105/105 
f 106/106/106 104/104/104 103/103/103 
f 107/107/107 106/106/106 103/103/103 
f 108/108/108 106/106/106 107/107/107 
f 109/109/109 104/104/104 106/106/106 
f 110/110/110 104/104/104 109/109/109 
f 111/111/111 112/112/112 113/113/113 
f 114/114/114 112/112/112 111/111/111 
f 115/115/115 114/114/114 111/111/111 
f 116/116/116 114/114/114 115/115/115 
f 117/117/117 112/112/112 114/114/114 
f 118/118/118 112/112/112 117/117/117 
f 119/119/119 120/120/120 121/121/121 
f 122/122/122 120/120/120 119/119/119 
f 123/123/123 122/122/122 119/119/119 
f 124/124/124 122/122/122 123/123/123 
f 125/125/125 120/120/120 122/122/122 
f 126/126/126 120/120/120 125/125/125 
f 127/127/127 128/128/128 129/129/129 
f 130/130/130 128/128/128 127/127/127 
f 127/127/127 131/131/131 130/130/130 
f 132/132/132 133/133/133 134/134/134 
f 135/135/135 136/136/136 137/137/137 
f 136/136/136 135/135/135 138/138/138 
f 139/139/139 140/140/140 141/141/141 
f 140/140/140 139/139/139 142/142/142 
f 143/143/143 144/144/144 145/145/145 
f 146/146/146 147/147/147 148/148/148 
f 149/149/149 150/150/150 151/151/151 
f 152/152/152 153/153/153 154/154/154 
f 155/155/155 156/156/156 157/157/157 
f 158/158/158 159/159/159 160/160/160 
f 161/161/161 162/162/162 163/163/163 
f 164/164/164 165/165/165 166/166/166 
f 167/167/167 168/168/168 169/169/169 
f 170/170/170 171/171/171 172/172/172 

