# This file uses centimeters as units for non-parametric coordinates.

mtllib Road.mtl
g default
v -6.768647 -0.087706 5.915214
v 7.178190 -0.087706 5.915214
v -6.768647 0.087706 5.915214
v 7.178190 0.087706 5.915214
v -6.768647 0.087706 -5.915214
v 7.178190 0.087706 -5.915214
v -6.768647 -0.087706 -5.915214
v 7.178190 -0.087706 -5.915214
v -4.087158 0.087706 5.915214
v -4.087158 0.087706 -5.915214
v -4.087158 -0.087706 -5.915214
v -4.087158 -0.087706 5.915214
v 4.353006 0.087706 5.915214
v 4.353006 0.087706 -5.915214
v 4.353006 -0.087706 -5.915214
v 4.353006 -0.087706 5.915214
v -6.768647 0.087706 5.915214
v -4.087158 0.087706 5.915214
v -4.087158 0.087706 -5.915214
v -6.768647 0.087706 -5.915214
v -6.768647 -0.087706 -5.915214
v -4.087158 -0.087706 -5.915214
v -4.087158 -0.087706 5.915214
v -6.768647 -0.087706 5.915214
v 4.353006 0.087706 5.915214
v 7.178190 0.087706 5.915214
v 7.178190 0.087706 -5.915214
v 4.353006 0.087706 -5.915214
v -6.768647 0.433072 5.915214
v -4.087158 0.433072 5.915214
v -4.087158 0.433072 -5.915214
v -6.768647 0.433072 -5.915214
v 4.353006 0.433072 5.915214
v 7.178190 0.433072 5.915214
v 7.178190 0.433072 -5.915214
v 4.353006 0.433072 -5.915214
v -6.604881 0.433072 5.915214
v -4.250925 0.433072 5.915214
v -4.250925 0.433072 -5.915214
v -6.604881 0.433072 -5.915214
v -4.087158 0.590036 5.915214
v -4.087158 0.590036 -5.915214
v -4.250925 0.590036 -5.915214
v -4.250925 0.590036 5.915214
v -6.768647 0.590036 5.915214
v -6.768647 0.590036 -5.915214
v -6.604881 0.590036 5.915214
v -6.604881 0.590036 -5.915214
v 4.491576 0.433072 5.915214
v 7.039620 0.433072 5.915214
v 7.039620 0.433072 -5.915214
v 4.491576 0.433072 -5.915214
v 7.178190 0.585544 5.915214
v 7.178190 0.585544 -5.915214
v 7.039620 0.585544 -5.915214
v 7.039620 0.585544 5.915214
v 4.353006 0.585544 5.915214
v 4.353006 0.585544 -5.915214
v 4.491576 0.585544 5.915214
v 4.491576 0.585544 -5.915214
vt 0.375000 0.000000
vt 0.625000 0.000000
vt 0.375000 0.250000
vt 0.625000 0.250000
vt 0.375000 0.500000
vt 0.625000 0.500000
vt 0.375000 0.750000
vt 0.625000 0.750000
vt 0.375000 1.000000
vt 0.625000 1.000000
vt 0.875000 0.000000
vt 0.875000 0.250000
vt 0.125000 0.000000
vt 0.125000 0.250000
vt 0.444397 0.250000
vt 0.444397 0.500000
vt 0.444397 0.750000
vt 0.444397 0.000000
vt 0.444397 1.000000
vt 0.559220 0.250000
vt 0.559220 0.500000
vt 0.559220 0.750000
vt 0.559220 0.000000
vt 0.559220 1.000000
vt 0.375000 0.250000
vt 0.444397 0.250000
vt 0.444397 0.500000
vt 0.375000 0.500000
vt 0.375000 0.750000
vt 0.444397 0.750000
vt 0.444397 1.000000
vt 0.375000 1.000000
vt 0.559220 0.250000
vt 0.625000 0.250000
vt 0.625000 0.500000
vt 0.559220 0.500000
vt 0.375000 0.250000
vt 0.444397 0.250000
vt 0.444397 0.500000
vt 0.375000 0.500000
vt 0.559220 0.250000
vt 0.625000 0.250000
vt 0.625000 0.500000
vt 0.559220 0.500000
vt 0.375000 0.250000
vt 0.444397 0.250000
vt 0.444397 0.500000
vt 0.375000 0.500000
vt 0.444397 0.250000
vt 0.444397 0.500000
vt 0.444397 0.500000
vt 0.444397 0.250000
vt 0.375000 0.500000
vt 0.375000 0.250000
vt 0.375000 0.250000
vt 0.375000 0.500000
vt 0.559220 0.250000
vt 0.625000 0.250000
vt 0.625000 0.500000
vt 0.559220 0.500000
vt 0.625000 0.250000
vt 0.625000 0.500000
vt 0.625000 0.500000
vt 0.625000 0.250000
vt 0.559220 0.500000
vt 0.559220 0.250000
vt 0.559220 0.250000
vt 0.559220 0.500000
vn 0.000000 0.000000 1.000000
vn 0.000000 0.000000 1.000000
vn 0.000000 0.000000 1.000000
vn 0.000000 0.000000 1.000000
vn 0.000000 1.000000 0.000000
vn 0.000000 1.000000 0.000000
vn 0.000000 1.000000 0.000000
vn 0.000000 1.000000 0.000000
vn 0.000000 0.000000 -1.000000
vn 0.000000 0.000000 -1.000000
vn 0.000000 0.000000 -1.000000
vn 0.000000 0.000000 -1.000000
vn 0.000000 -1.000000 0.000000
vn 0.000000 -1.000000 0.000000
vn 0.000000 -1.000000 0.000000
vn 0.000000 -1.000000 0.000000
vn 1.000000 0.000000 0.000000
vn 1.000000 0.000000 0.000000
vn 1.000000 0.000000 0.000000
vn 1.000000 0.000000 0.000000
vn -1.000000 0.000000 0.000000
vn -1.000000 0.000000 0.000000
vn -1.000000 0.000000 0.000000
vn -1.000000 0.000000 0.000000
vn 0.000000 1.000000 0.000000
vn 0.000000 1.000000 0.000000
vn 0.000000 1.000000 0.000000
vn 0.000000 1.000000 0.000000
vn 0.000000 0.000000 -1.000000
vn 0.000000 0.000000 -1.000000
vn 0.000000 -1.000000 0.000000
vn 0.000000 -1.000000 0.000000
vn 0.000000 -1.000000 0.000000
vn 0.000000 -1.000000 0.000000
vn 0.000000 0.000000 1.000000
vn 0.000000 0.000000 1.000000
vn 0.000000 1.000000 0.000000
vn 0.000000 1.000000 0.000000
vn 0.000000 1.000000 0.000000
vn 0.000000 1.000000 0.000000
vn 0.000000 0.000000 -1.000000
vn 0.000000 0.000000 -1.000000
vn 0.000000 -1.000000 0.000000
vn 0.000000 -1.000000 0.000000
vn 0.000000 0.000000 1.000000
vn 0.000000 0.000000 1.000000
vn 0.000000 0.000000 0.000000
vn 0.000000 0.000000 0.000000
vn 0.000000 0.000000 0.000000
vn 0.000000 0.000000 0.000000
vn 0.000000 0.000000 0.000000
vn 0.000000 0.000000 0.000000
vn 0.000000 0.000000 0.000000
vn 0.000000 0.000000 0.000000
vn 0.000000 0.000000 0.000000
vn 0.000000 0.000000 0.000000
vn 0.000000 0.000000 0.000000
vn 0.000000 0.000000 0.000000
vn 0.000000 0.000000 0.000000
vn 0.000000 0.000000 0.000000
vn 0.000000 0.000000 0.000000
vn 0.000000 0.000000 0.000000
vn 0.000000 0.000000 0.000000
vn 0.000000 0.000000 0.000000
vn 0.000000 0.000000 0.000000
vn 0.000000 0.000000 0.000000
vn 0.000000 0.000000 0.000000
vn 0.000000 0.000000 0.000000
vn 0.000000 0.000000 0.000000
vn 0.000000 0.000000 0.000000
vn 0.000000 0.000000 0.000000
vn 0.000000 0.000000 0.000000
vn 0.000000 0.000000 0.000000
vn 0.000000 0.000000 0.000000
vn 0.000000 0.000000 0.000000
vn 0.000000 0.000000 0.000000
vn 0.000000 0.000000 0.000000
vn 0.000000 0.000000 0.000000
vn 0.000000 0.000000 0.000000
vn 0.000000 0.000000 0.000000
vn 0.000000 0.000000 0.000000
vn 0.000000 0.000000 0.000000
vn 0.000000 0.000000 0.000000
vn 0.000000 0.000000 0.000000
vn 0.000000 0.000000 0.000000
vn 0.000000 0.000000 0.000000
vn 0.000000 0.000000 0.000000
vn 0.000000 0.000000 0.000000
vn 0.000000 0.000000 0.000000
vn 0.000000 0.000000 0.000000
vn 0.000000 0.000000 0.000000
vn 0.000000 0.000000 0.000000
vn 0.000000 0.000000 0.000000
vn 0.000000 0.000000 0.000000
vn 0.000000 0.000000 1.000000
vn 0.000000 0.000000 1.000000
vn 0.000000 0.000000 1.000000
vn 0.000000 0.000000 1.000000
vn 1.000000 0.000000 0.000000
vn 1.000000 0.000000 0.000000
vn 1.000000 0.000000 0.000000
vn 1.000000 0.000000 0.000000
vn 0.000000 0.000000 -1.000000
vn 0.000000 0.000000 -1.000000
vn 0.000000 0.000000 -1.000000
vn 0.000000 0.000000 -1.000000
vn -1.000000 0.000000 0.000000
vn -1.000000 0.000000 0.000000
vn -1.000000 0.000000 0.000000
vn -1.000000 0.000000 0.000000
vn 0.000000 0.000000 1.000000
vn 0.000000 0.000000 1.000000
vn 0.000000 0.000000 1.000000
vn 0.000000 0.000000 1.000000
vn 1.000000 0.000000 0.000000
vn 1.000000 0.000000 0.000000
vn 1.000000 0.000000 0.000000
vn 1.000000 0.000000 0.000000
vn 0.000000 0.000000 -1.000000
vn 0.000000 0.000000 -1.000000
vn 0.000000 0.000000 -1.000000
vn 0.000000 0.000000 -1.000000
vn -1.000000 0.000000 0.000000
vn -1.000000 0.000000 0.000000
vn -1.000000 0.000000 0.000000
vn -1.000000 0.000000 0.000000
vn 0.000000 0.000000 1.000000
vn 0.000000 0.000000 1.000000
vn 0.000000 0.000000 1.000000
vn 0.000000 0.000000 1.000000
vn 0.000000 1.000000 0.000000
vn 0.000000 1.000000 0.000000
vn 0.000000 1.000000 0.000000
vn 0.000000 1.000000 0.000000
vn 0.000000 0.000000 -1.000000
vn 0.000000 0.000000 -1.000000
vn 0.000000 0.000000 -1.000000
vn 0.000000 0.000000 -1.000000
vn 0.000000 1.000000 0.000000
vn 0.000000 1.000000 0.000000
vn 0.000000 1.000000 0.000000
vn 0.000000 1.000000 0.000000
vn 1.000000 0.000000 0.000000
vn 1.000000 0.000000 0.000000
vn 0.000000 0.000000 -1.000000
vn 0.000000 0.000000 -1.000000
vn -1.000000 0.000000 0.000000
vn -1.000000 0.000000 0.000000
vn -1.000000 0.000000 0.000000
vn -1.000000 0.000000 0.000000
vn 0.000000 0.000000 1.000000
vn 0.000000 0.000000 1.000000
vn -1.000000 0.000000 0.000000
vn -1.000000 0.000000 0.000000
vn 0.000000 0.000000 1.000000
vn 0.000000 0.000000 1.000000
vn 1.000000 0.000000 0.000000
vn 1.000000 0.000000 0.000000
vn 1.000000 0.000000 0.000000
vn 1.000000 0.000000 0.000000
vn 0.000000 0.000000 -1.000000
vn 0.000000 0.000000 -1.000000
vn 0.000000 0.000000 1.000000
vn 0.000000 0.000000 1.000000
vn 0.000000 0.000000 1.000000
vn 0.000000 0.000000 1.000000
vn 0.000000 1.000000 0.000000
vn 0.000000 1.000000 0.000000
vn 0.000000 1.000000 0.000000
vn 0.000000 1.000000 0.000000
vn 0.000000 0.000000 -0.000000
vn 0.000000 0.000000 -0.000000
vn 0.000000 0.000000 -1.000000
vn 0.000000 0.000000 -1.000000
vn 0.000000 1.000000 0.000000
vn 0.000000 1.000000 0.000000
vn 0.000000 1.000000 0.000000
vn 0.000000 1.000000 0.000000
vn 1.000000 0.000000 0.000000
vn 1.000000 0.000000 0.000000
vn 0.000000 0.000000 -1.000000
vn 0.000000 0.000000 -1.000000
vn 0.000000 0.000000 -1.000000
vn 0.000000 0.000000 -1.000000
vn -1.000000 0.000000 0.000000
vn -1.000000 0.000000 0.000000
vn -1.000000 0.000000 0.000000
vn -1.000000 0.000000 0.000000
vn 0.000000 0.000000 1.000000
vn 0.000000 0.000000 1.000000
vn -1.000000 0.000000 0.000000
vn -1.000000 0.000000 0.000000
vn 0.000000 0.000000 1.000000
vn 0.000000 0.000000 1.000000
vn 1.000000 0.000000 0.000000
vn 1.000000 0.000000 0.000000
vn 1.000000 0.000000 0.000000
vn 1.000000 0.000000 0.000000
vn 0.000000 0.000000 -1.000000
vn 0.000000 0.000000 -1.000000
vn 0.000000 0.000000 -1.000000
vn 0.000000 0.000000 -1.000000
s 1
g pCube1
usemtl lambert3SG
f 1/1/1 12/18/2 9/15/3 3/3/4
s off
f 37/45/5 38/46/6 39/47/7 40/48/8
s 2
f 5/5/9 10/16/10 11/17/11 7/7/12
s off
f 21/29/13 22/30/14 23/31/15 24/32/16
f 2/2/17 8/11/18 6/12/19 4/4/20
f 7/13/21 1/1/22 3/3/23 5/14/24
f 9/15/25 13/20/26 14/21/27 10/16/28
s 2
f 11/17/11 10/16/10 14/21/29 15/22/30
s 3
f 12/19/31 11/17/32 15/22/33 16/24/34
s 1
f 9/15/3 12/18/2 16/23/35 13/20/36
s off
f 49/57/37 50/58/38 51/59/39 52/60/40
s 2
f 15/22/30 14/21/29 6/6/41 8/8/42
s 3
f 16/24/34 15/22/33 8/8/43 2/10/44
s 1
f 13/20/36 16/23/35 2/2/45 4/4/46
s off
f 3/3/47 9/15/48 18/26/49 17/25/50
f 9/15/51 10/16/52 19/27/53 18/26/54
f 10/16/55 5/5/56 20/28/57 19/27/58
f 5/5/59 3/3/60 17/25/61 20/28/62
f 7/7/63 11/17/64 22/30/65 21/29/66
f 11/17/67 12/19/68 23/31/69 22/30/70
f 12/19/71 1/9/72 24/32/73 23/31/74
f 1/9/75 7/7/76 21/29/77 24/32/78
f 13/20/79 4/4/80 26/34/81 25/33/82
f 4/4/83 6/6/84 27/35/85 26/34/86
f 6/6/87 14/21/88 28/36/89 27/35/90
f 14/21/91 13/20/92 25/33/93 28/36/94
f 17/25/95 18/26/96 30/38/97 29/37/98
s 4
f 18/26/99 19/27/100 31/39/101 30/38/102
s off
f 19/27/103 20/28/104 32/40/105 31/39/106
s 5
f 20/28/107 17/25/108 29/37/109 32/40/110
s off
f 25/33/111 26/34/112 34/42/113 33/41/114
s 6
f 26/34/115 27/35/116 35/43/117 34/42/118
s off
f 27/35/119 28/36/120 36/44/121 35/43/122
s 7
f 28/36/123 25/33/124 33/41/125 36/44/126
s 8
f 29/37/127 30/38/128 38/46/129 37/45/130
s off
f 41/49/131 42/50/132 43/51/133 44/52/134
s 9
f 31/39/135 32/40/136 40/48/137 39/47/138
s off
f 46/53/139 45/54/140 47/55/141 48/56/142
s 4
f 30/38/102 31/39/101 42/50/143 41/49/144
s 9
f 31/39/135 39/47/138 43/51/145 42/50/146
s off
f 39/47/147 38/46/148 44/52/149 43/51/150
s 8
f 38/46/129 30/38/128 41/49/151 44/52/152
s 5
f 32/40/110 29/37/109 45/54/153 46/53/154
s 8
f 29/37/127 37/45/130 47/55/155 45/54/156
s off
f 37/45/157 40/48/158 48/56/159 47/55/160
s 9
f 40/48/137 32/40/136 46/53/161 48/56/162
s 10
f 33/41/163 34/42/164 50/58/165 49/57/166
s off
f 53/61/167 54/62/168 55/63/169 56/64/170
f 35/43/171 36/44/172 52/60/173 51/59/174
f 58/65/175 57/66/176 59/67/177 60/68/178
s 6
f 34/42/118 35/43/117 54/62/179 53/61/180
s off
f 35/43/181 51/59/182 55/63/183 54/62/184
f 51/59/185 50/58/186 56/64/187 55/63/188
s 10
f 50/58/165 34/42/164 53/61/189 56/64/190
s 7
f 36/44/126 33/41/125 57/66/191 58/65/192
s 10
f 33/41/163 49/57/166 59/67/193 57/66/194
s off
f 49/57/195 52/60/196 60/68/197 59/67/198
f 52/60/199 36/44/200 58/65/201 60/68/202
